<svg width="435" height="248" viewBox="0 0 435 248" fill="none" xmlns="http://www.w3.org/2000/svg">
<path d="M431.045 125.959C432.702 125.959 434.049 124.607 434.01 122.95C432.409 54.8363 376.592 0.0986915 307.933 0H307.561C296.734 0.015559 286.226 1.38978 276.2 3.96088C276.182 3.96561 276.168 3.96905 276.149 3.9735C275.573 4.11184 264.287 6.8566 252.789 12.5182C240.985 18.3302 228.809 27.6271 228.809 27.6271V224.291L276.171 247.95L276.173 127.204C276.173 126.407 276.49 125.643 277.054 125.08L305.629 96.5823C306.8 95.4145 308.695 95.4145 309.866 96.5823L339.321 125.959C339.321 125.959 339.321 125.959 339.321 125.959V125.959C339.321 125.959 339.321 125.959 339.322 125.959L431.045 125.959Z" />
<path d="M3.00038 122.046C1.34353 122.046 -0.0032117 123.398 0.0357251 125.055C1.63687 193.169 57.4539 247.906 126.113 248.005H126.485C137.312 247.989 147.819 246.615 157.845 244.044C157.864 244.039 157.877 244.036 157.896 244.031C158.473 243.893 169.758 241.148 181.257 235.487C193.06 229.675 205.236 220.378 205.236 220.378L205.236 23.7135L157.874 0.0548286L157.873 120.801C157.873 121.598 157.556 122.362 156.991 122.925L128.417 151.423C127.246 152.59 125.351 152.59 124.18 151.423L94.7244 122.046C94.7243 122.046 94.7243 122.046 94.7243 122.046V122.046C94.7243 122.046 94.7241 122.046 94.7238 122.046L3.00038 122.046Z" />
</svg>